<svg width="15" height="12" xmlns="http://www.w3.org/2000/svg"><path d="M12.29 0c.643 0 .986.066 1.342.257.334.178.6.444.778.777.19.357.257.7.257 1.342v7.248c0 .643-.066.985-.257 1.342a1.88 1.88 0 0 1-.778.777c-.356.19-.699.257-1.341.257H2.376c-.643 0-.985-.066-1.342-.257a1.878 1.878 0 0 1-.777-.777c-.19-.357-.257-.7-.257-1.342V2.376c0-.643.066-.985.257-1.342C.435.701.7.435 1.034.257 1.391.067 1.734 0 2.376 0Zm0 1.333-10.027.001c-.353.004-.475.032-.6.099a.545.545 0 0 0-.23.23c-.074.137-.1.272-.1.713l.001 7.361c.004.353.032.475.099.6.054.1.13.176.23.23.137.074.272.1.713.1l10.028-.001c.352-.004.475-.032.6-.099a.545.545 0 0 0 .23-.23c.073-.137.1-.272.1-.713l-.001-7.361c-.005-.353-.032-.475-.099-.6a.545.545 0 0 0-.23-.23c-.138-.074-.272-.1-.713-.1ZM3.637 2.74l.067.04 3.63 2.419 3.63-2.42a.667.667 0 0 1 .802 1.063l-.062.047-4 2.667a.667.667 0 0 1-.662.044l-.077-.044-4-2.667a.667.667 0 0 1 .672-1.149Z" fill="#171A1D" fill-rule="evenodd"/></svg>