<svg width="17" height="17" xmlns="http://www.w3.org/2000/svg"><g fill="none" fill-rule="evenodd"><path d="M.333.608h16v16h-16z"/><path d="M8.333 1.941a6.667 6.667 0 1 0 0 13.333 6.667 6.667 0 0 0 0-13.333Zm2.857 6.19a11.552 11.552 0 0 0-1.328-5.023 5.714 5.714 0 0 1 4.186 5.024H11.19Zm-3.176 6.191A10.405 10.405 0 0 1 6.43 9.084h3.81a10.405 10.405 0 0 1-1.572 5.238 2.381 2.381 0 0 1-.334 0 2.381 2.381 0 0 1-.319 0ZM6.43 8.132a10.41 10.41 0 0 1 1.571-5.239c.212-.023.426-.023.638 0a10.405 10.405 0 0 1 1.6 5.239h-3.81Zm.361-5.024a11.552 11.552 0 0 0-1.314 5.024H2.62a5.714 5.714 0 0 1 4.186-5.024H6.79ZM2.643 9.084H5.5a11.56 11.56 0 0 0 1.31 5.024 5.714 5.714 0 0 1-4.167-5.024Zm7.219 5.024a11.552 11.552 0 0 0 1.328-5.024h2.858a5.714 5.714 0 0 1-4.186 5.024Z" fill="#171A1D" stroke="#171A1D" stroke-width=".5"/></g></svg>